<svg xmlns="http://www.w3.org/2000/svg" width="20" height="20" viewBox="0 0 20 20" role="img" aria-labelledby="title" shape-rendering="crispEdges">
  <title id="title">Atlyn Process Lens: connected process activities</title>
  <rect x="0" y="0" width="20" height="20" fill="#111827"/>
  <rect x="5" y="4" width="10" height="2" fill="#e2e8f0"/>
  <rect x="14" y="5" width="2" height="10" fill="#e2e8f0"/>
  <rect x="5" y="14" width="10" height="2" fill="#e2e8f0"/>
  <rect x="4" y="5" width="2" height="10" fill="#e2e8f0"/>
  <rect x="10" y="2" width="2" height="2" fill="#e2e8f0"/>
  <rect x="12" y="4" width="2" height="2" fill="#e2e8f0"/>
  <rect x="10" y="6" width="2" height="2" fill="#e2e8f0"/>
  <rect x="16" y="10" width="2" height="2" fill="#e2e8f0"/>
  <rect x="14" y="12" width="2" height="2" fill="#e2e8f0"/>
  <rect x="12" y="10" width="2" height="2" fill="#e2e8f0"/>
  <rect x="8" y="12" width="2" height="2" fill="#e2e8f0"/>
  <rect x="6" y="14" width="2" height="2" fill="#e2e8f0"/>
  <rect x="8" y="16" width="2" height="2" fill="#e2e8f0"/>
  <rect x="2" y="2" width="5" height="5" fill="#2dd4bf"/>
  <rect x="13" y="2" width="5" height="5" fill="#2dd4bf"/>
  <rect x="13" y="13" width="5" height="5" fill="#2dd4bf"/>
  <rect x="2" y="13" width="5" height="5" fill="#2dd4bf"/>
</svg>
